HIERARCHY
ROOT reference
{
  OFFSET 0 0 0
  CHANNELS 6 Xposition Yposition Zposition Zrotation Xrotation Yrotation
  JOINT Hips
  {
    OFFSET 370.543 87.5 183.721
    CHANNELS 3 Zrotation Xrotation Yrotation
    JOINT RightUpLeg
    {
      OFFSET -9.29072 -1.53718 -0.00769521
      CHANNELS 3 Zrotation Xrotation Yrotation
      JOINT RightLeg
      {
        OFFSET 0.000649198 -41.8926 0.0287464
        CHANNELS 3 Zrotation Xrotation Yrotation
        JOINT RightFoot
        {
          OFFSET -0.131981 -42.8927 0.241786
          CHANNELS 3 Zrotation Xrotation Yrotation
          End Site
          {
            OFFSET 0 -7.69 17.5
          }
        }
      }
    }
    JOINT LeftUpLeg
    {
      OFFSET 9.29816 -1.6623 -0.0330144
      CHANNELS 3 Zrotation Xrotation Yrotation
      JOINT LeftLeg
      {
        OFFSET 0.0555409 -41.8801 -0.0492089
        CHANNELS 3 Zrotation Xrotation Yrotation
        JOINT LeftFoot
        {
          OFFSET 0.737583 -41.1094 -0.206555
          CHANNELS 3 Zrotation Xrotation Yrotation
          End Site
          {
            OFFSET 0 -7.69 17.5
          }
        }
      }
    }
    JOINT Spine
    {
      OFFSET 0.0742767 14.2946 0.0485675
      CHANNELS 3 Zrotation Xrotation Yrotation
      JOINT Spine1
      {
        OFFSET 0.0332084 9.70841 0.0159593
        CHANNELS 3 Zrotation Xrotation Yrotation
        JOINT Spine2
        {
          OFFSET 0.0388468 10.1231 0.00288192
          CHANNELS 3 Zrotation Xrotation Yrotation
          JOINT Spine3
          {
            OFFSET 0.0300771 9.71993 0.00776905
            CHANNELS 3 Zrotation Xrotation Yrotation
            JOINT Neck
            {
              OFFSET 0.058413 10.382 0.0516165
              CHANNELS 3 Zrotation Xrotation Yrotation
              JOINT Head
              {
                OFFSET 0.0298281 9.47849 0.0268718
                CHANNELS 3 Zrotation Xrotation Yrotation
                End Site
                {
                  OFFSET 0 15.95 0
                }
              }
            }
            JOINT RightShoulder
            {
              OFFSET -3.15612 6.91385 0.0353801
              CHANNELS 3 Zrotation Xrotation Yrotation
              JOINT RightArm
              {
                OFFSET -12.7781 -0.0057607 0.0332486
                CHANNELS 3 Zrotation Xrotation Yrotation
                JOINT RightForeArm
                {
                  OFFSET -26.4999 -0.0425897 0.0409183
                  CHANNELS 3 Zrotation Xrotation Yrotation
                  JOINT RightHand
                  {
                    OFFSET -25.993 -0.0294641 0.00108206
                    CHANNELS 3 Zrotation Xrotation Yrotation
                    JOINT RightHandThumb1
                    {
                      OFFSET -2.48905 0.190105 3.12053
                      CHANNELS 3 Zrotation Xrotation Yrotation
                      JOINT RightHandThumb2
                      {
                        OFFSET -3.68274 0 0
                        CHANNELS 3 Zrotation Xrotation Yrotation
                        JOINT RightHandThumb3
                        {
                          OFFSET -2.55832 0 0
                          CHANNELS 3 Zrotation Xrotation Yrotation
                          End Site
                          {
                            OFFSET -2.194 0 0
                          }
                        }
                      }
                    }
                    JOINT RightInHandIndex
                    {
                      OFFSET -3.22368 0.508421 1.97842
                      CHANNELS 3 Zrotation Xrotation Yrotation
                      JOINT RightHandIndex1
                      {
                        OFFSET -5.21684 -0.091368 0.999158
                        CHANNELS 3 Zrotation Xrotation Yrotation
                        JOINT RightHandIndex2
                        {
                          OFFSET -3.61937 0 0
                          CHANNELS 3 Zrotation Xrotation Yrotation
                          JOINT RightHandIndex3
                          {
                            OFFSET -2.0521 0 0
                            CHANNELS 3 Zrotation Xrotation Yrotation
                            End Site
                            {
                              OFFSET -1.805 0 0
                            }
                          }
                        }
                      }
                    }
                    JOINT RightInHandMiddle
                    {
                      OFFSET -3.38211 0.517263 0.756737
                      CHANNELS 3 Zrotation Xrotation Yrotation
                      JOINT RightHandMiddle1
                      {
                        OFFSET -5.17411 -0.084 0.313895
                        CHANNELS 3 Zrotation Xrotation Yrotation
                        JOINT RightHandMiddle2
                        {
                          OFFSET -3.94947 0 0
                          CHANNELS 3 Zrotation Xrotation Yrotation
                          JOINT RightHandMiddle3
                          {
                            OFFSET -2.47579 0 0
                            CHANNELS 3 Zrotation Xrotation Yrotation
                            End Site
                            {
                              OFFSET -1.975 0 0
                            }
                          }
                        }
                      }
                    }
                    JOINT RightInHandRing
                    {
                      OFFSET -3.36516 0.537895 -0.128947
                      CHANNELS 3 Zrotation Xrotation Yrotation
                      JOINT RightHandRing1
                      {
                        OFFSET -4.63474 -0.022105 -0.478947
                        CHANNELS 3 Zrotation Xrotation Yrotation
                        JOINT RightHandRing2
                        {
                          OFFSET -3.44238 0 0
                          CHANNELS 3 Zrotation Xrotation Yrotation
                          JOINT RightHandRing3
                          {
                            OFFSET -2.3881 0 0
                            CHANNELS 3 Zrotation Xrotation Yrotation
                            End Site
                            {
                              OFFSET -1.857 0 0
                            }
                          }
                        }
                      }
                    }
                    JOINT RightInHandPinky
                    {
                      OFFSET -3.16105 0.469368 -1.20179
                      CHANNELS 3 Zrotation Xrotation Yrotation
                      JOINT RightHandPinky1
                      {
                        OFFSET -4.14105 -0.022105 -1.09053
                        CHANNELS 3 Zrotation Xrotation Yrotation
                        JOINT RightHandPinky2
                        {
                          OFFSET -2.75653 0 0
                          CHANNELS 3 Zrotation Xrotation Yrotation
                          JOINT RightHandPinky3
                          {
                            OFFSET -1.74189 0 0
                            CHANNELS 3 Zrotation Xrotation Yrotation
                            End Site
                            {
                              OFFSET -1.645 0 0
                            }
                          }
                        }
                      }
                    }
                  }
                }
              }
            }
            JOINT LeftShoulder
            {
              OFFSET 3.24463 6.9123 -0.0189685
              CHANNELS 3 Zrotation Xrotation Yrotation
              JOINT LeftArm
              {
                OFFSET 12.8793 -0.0485389 -0.0634723
                CHANNELS 3 Zrotation Xrotation Yrotation
                JOINT LeftForeArm
                {
                  OFFSET 26.4894 0.00252616 -0.136149
                  CHANNELS 3 Zrotation Xrotation Yrotation
                  JOINT LeftHand
                  {
                    OFFSET 26.005 0.0292639 -0.0166184
                    CHANNELS 3 Zrotation Xrotation Yrotation
                    JOINT LeftHandThumb1
                    {
                      OFFSET 2.48905 0.190105 3.12053
                      CHANNELS 3 Zrotation Xrotation Yrotation
                      JOINT LeftHandThumb2
                      {
                        OFFSET 3.68274 0 0
                        CHANNELS 3 Zrotation Xrotation Yrotation
                        JOINT LeftHandThumb3
                        {
                          OFFSET 2.55832 0 0
                          CHANNELS 3 Zrotation Xrotation Yrotation
                          End Site
                          {
                            OFFSET 2.194 0 0
                          }
                        }
                      }
                    }
                    JOINT LeftInHandIndex
                    {
                      OFFSET 3.22368 0.508421 1.97842
                      CHANNELS 3 Zrotation Xrotation Yrotation
                      JOINT LeftHandIndex1
                      {
                        OFFSET 5.21684 -0.091368 0.999158
                        CHANNELS 3 Zrotation Xrotation Yrotation
                        JOINT LeftHandIndex2
                        {
                          OFFSET 3.61937 0 0
                          CHANNELS 3 Zrotation Xrotation Yrotation
                          JOINT LeftHandIndex3
                          {
                            OFFSET 2.0521 0 0
                            CHANNELS 3 Zrotation Xrotation Yrotation
                            End Site
                            {
                              OFFSET 1.805 0 0
                            }
                          }
                        }
                      }
                    }
                    JOINT LeftInHandMiddle
                    {
                      OFFSET 3.38211 0.517263 0.756737
                      CHANNELS 3 Zrotation Xrotation Yrotation
                      JOINT LeftHandMiddle1
                      {
                        OFFSET 5.17411 -0.084 0.313895
                        CHANNELS 3 Zrotation Xrotation Yrotation
                        JOINT LeftHandMiddle2
                        {
                          OFFSET 3.94947 0 0
                          CHANNELS 3 Zrotation Xrotation Yrotation
                          JOINT LeftHandMiddle3
                          {
                            OFFSET 2.47579 0 0
                            CHANNELS 3 Zrotation Xrotation Yrotation
                            End Site
                            {
                              OFFSET 1.975 0 0
                            }
                          }
                        }
                      }
                    }
                    JOINT LeftInHandRing
                    {
                      OFFSET 3.36516 0.537895 -0.128947
                      CHANNELS 3 Zrotation Xrotation Yrotation
                      JOINT LeftHandRing1
                      {
                        OFFSET 4.63474 -0.022105 -0.478947
                        CHANNELS 3 Zrotation Xrotation Yrotation
                        JOINT LeftHandRing2
                        {
                          OFFSET 3.44238 0 0
                          CHANNELS 3 Zrotation Xrotation Yrotation
                          JOINT LeftHandRing3
                          {
                            OFFSET 2.3881 0 0
                            CHANNELS 3 Zrotation Xrotation Yrotation
                            End Site
                            {
                              OFFSET 1.857 0 0
                            }
                          }
                        }
                      }
                    }
                    JOINT LeftInHandPinky
                    {
                      OFFSET 3.16105 0.469368 -1.20179
                      CHANNELS 3 Zrotation Xrotation Yrotation
                      JOINT LeftHandPinky1
                      {
                        OFFSET 4.14105 -0.022105 -1.09053
                        CHANNELS 3 Zrotation Xrotation Yrotation
                        JOINT LeftHandPinky2
                        {
                          OFFSET 2.75653 0 0
                          CHANNELS 3 Zrotation Xrotation Yrotation
                          JOINT LeftHandPinky3
                          {
                            OFFSET 1.74189 0 0
                            CHANNELS 3 Zrotation Xrotation Yrotation
                            End Site
                            {
                              OFFSET 1.645 0 0
                            }
                          }
                        }
                      }
                    }
                  }
                }
              }
            }
          }
        }
      }
    }
  }
}
MOTION
Frames: 2
Frame Time: 0.00833333
7.500000000000000000e+02 0.000000000000000000e+00 0.000000000000000000e+00 0.000000000000000000e+00 0.000000000000000000e+00 0.000000000000000000e+00 -3.156260872362136816e+00 -3.687789422956926799e+00 6.027712968985774467e+00 3.625740697047163952e-01 1.159815514540288817e+01 1.790464716490305586e+00 3.437120916973923634e-01 -3.038429791299003480e+00 -3.858395082869792159e-01 -2.018437345709890085e+00 2.350008016806829581e+00 6.905252559615742136e-01 -4.740313617226937559e+00 7.793428998392910145e+00 -2.032355535077684294e+00 -1.009761448483269319e+00 -3.541283041575972401e+00 -2.265451592983571960e-01 -5.474777658473268388e-02 1.564174706049227537e-01 -3.311123893823608277e+00 -7.923228209227155538e-01 -2.011596819464692931e+00 2.970333344093466277e+00 -1.320071902921346185e-01 -7.204486796404554472e-01 7.920538693300624988e-01 -2.402633759457651619e-01 -1.273290367889966079e+00 1.217680009647201578e+00 2.570875138316125463e-01 4.501324321860668276e-02 -4.218720816062773160e-01 1.020572538749110025e+00 -1.387989169348133434e+00 3.163433420075022706e+00 5.166015780611457942e+00 4.164698232456928828e+00 -1.020950612326762474e+01 8.861127343342288520e-02 4.827487430451238293e-01 1.740374162861921814e+00 -1.944268672830992273e+01 -2.415593899138055001e+00 -4.504930025265825311e-01 -9.063124562930072514e+00 3.730568000246913485e+00 -3.093190050157609505e+00 1.072045011564183969e+00 3.348851199549393698e+00 -5.809581917382945271e+00 0.000000000000000000e+00 0.000000000000000000e+00 0.000000000000000000e+00 5.772761696611550378e-16 6.441718920853189235e-17 0.000000000000000000e+00 1.244669972270904709e-15 5.191301178255349849e-16 0.000000000000000000e+00 1.364419253443564938e-15 1.749540777347498380e-16 -7.431295005900079043e-16 0.000000000000000000e+00 0.000000000000000000e+00 0.000000000000000000e+00 0.000000000000000000e+00 -7.985446642134803385e-16 7.884314069095705645e-16 0.000000000000000000e+00 -1.290947192120900582e-15 -3.370276349809181032e-16 1.364419253443564938e-15 1.749540777347498380e-16 -7.431295005900079043e-16 0.000000000000000000e+00 -7.129037581604156358e-16 1.839754969587178695e-16 0.000000000000000000e+00 -6.248727797954788642e-16 -4.282211103991004913e-16 0.000000000000000000e+00 -4.209084644125561890e-16 -1.044324361700035070e-15 1.364419253443564938e-15 1.749540777347498380e-16 -7.431295005900079043e-16 0.000000000000000000e+00 0.000000000000000000e+00 0.000000000000000000e+00 0.000000000000000000e+00 1.477460507284895093e-17 7.194193330983647869e-16 0.000000000000000000e+00 3.425019337878621097e-16 -6.383025414415292889e-16 1.364419253443564938e-15 1.749540777347498380e-16 -7.431295005900079043e-16 0.000000000000000000e+00 0.000000000000000000e+00 0.000000000000000000e+00 0.000000000000000000e+00 1.641137631207650310e-16 1.262147777711396001e-15 0.000000000000000000e+00 1.135694833139126663e-15 -1.164679220229701077e-15 -2.310474590388190919e+00 -1.271475160509841329e+00 1.635326023849986488e+00 -3.349497368785954166e-01 -1.925869342060326339e+00 1.374982463306102520e-01 -3.171345819902460672e+00 -1.091356462515522807e+01 -2.432894172027910784e+01 2.946585955053071082e+00 -1.770247205314575911e+00 -3.946512452621784295e+00 0.000000000000000000e+00 0.000000000000000000e+00 0.000000000000000000e+00 3.513519184376663802e-16 -3.340008808908664808e-16 0.000000000000000000e+00 9.422809104098326004e-16 -1.384543961200315852e-15 0.000000000000000000e+00 1.093497905454227862e-16 -4.429757041904111690e-16 -1.632442629466677743e-16 0.000000000000000000e+00 0.000000000000000000e+00 0.000000000000000000e+00 0.000000000000000000e+00 3.335826283170896116e-16 4.331481540922688346e-16 0.000000000000000000e+00 -1.361654801160796271e-16 -4.140047140976275930e-16 1.093497905454227862e-16 -4.429757041904111690e-16 -1.632442629466677743e-16 0.000000000000000000e+00 1.287467558966541174e-15 -7.404875316231797025e-16 0.000000000000000000e+00 -5.960648306638831358e-16 1.361824191375241080e-15 0.000000000000000000e+00 4.776967651317721565e-16 4.540897400531198190e-16 1.093497905454227862e-16 -4.429757041904111690e-16 -1.632442629466677743e-16 0.000000000000000000e+00 0.000000000000000000e+00 0.000000000000000000e+00 0.000000000000000000e+00 -1.601964439811548024e-16 -8.289755263632403217e-16 0.000000000000000000e+00 2.432320113734021454e-16 -3.885994249227586462e-17 1.093497905454227862e-16 -4.429757041904111690e-16 -1.632442629466677743e-16 0.000000000000000000e+00 0.000000000000000000e+00 0.000000000000000000e+00 0.000000000000000000e+00 3.051670578806803843e-16 7.793464188862811316e-16 0.000000000000000000e+00 1.220964103971678863e-15 3.805553160225123058e-16
7.500000000000000000e+02 0.000000000000000000e+00 0.000000000000000000e+00 0.000000000000000000e+00 0.000000000000000000e+00 0.000000000000000000e+00 -3.135010507881642816e+00 -3.749879931520483378e+00 5.914816383532797595e+00 5.636466692078219154e-01 1.164645630478831784e+01 1.942323985818577903e+00 3.304780967326571561e-01 -3.066960918635588840e+00 -3.370530836082926696e-01 -2.240564071201205376e+00 2.582633265088975172e+00 9.601259538435582552e-01 -4.649126744612554596e+00 7.929589340852543522e+00 -1.843554755992910410e+00 -1.117473406934912372e+00 -3.590714656189045950e+00 -1.494361596125295122e-01 -8.157441133181517201e-02 1.608385069550720414e-01 -3.379522209745083661e+00 -8.845161893696492639e-01 -2.133762355747236050e+00 3.064897184127238550e+00 -1.558225018584575572e-01 -7.531346696832095233e-01 8.111804768878063676e-01 -2.782211679294969708e-01 -1.326631630422773434e+00 1.244026997306310500e+00 2.581880564597581751e-01 3.897283020896741973e-02 -4.153908979403265755e-01 1.024067433920494485e+00 -1.364164330972313266e+00 3.129619748095353593e+00 5.162480889895080693e+00 4.071091829274182672e+00 -1.005013399647364558e+01 1.203627537120585261e-01 5.899537287178940881e-01 1.739214153570463717e+00 -1.990278419398860876e+01 -2.694059298081157738e+00 -4.932555788342212200e-01 -9.127329773292137460e+00 3.666335798766209297e+00 -2.505511323075282348e+00 1.106586150194413420e+00 3.525707406876657402e+00 -5.913994628228982364e+00 0.000000000000000000e+00 0.000000000000000000e+00 0.000000000000000000e+00 5.182770737477279296e-16 -1.753264702513142972e-16 0.000000000000000000e+00 1.249760187330806084e-15 5.740319221524152933e-16 0.000000000000000000e+00 1.242940084379421686e-15 1.608114506931135580e-16 -6.670999298966277121e-16 0.000000000000000000e+00 0.000000000000000000e+00 0.000000000000000000e+00 0.000000000000000000e+00 -6.666345579687832703e-16 7.424540285386558105e-16 0.000000000000000000e+00 -1.272987476746819139e-15 -5.609249241739844877e-16 1.242940084379421686e-15 1.608114506931135580e-16 -6.670999298966277121e-16 0.000000000000000000e+00 -9.247563376833438287e-16 4.022003915306107281e-16 0.000000000000000000e+00 -7.698471545311513635e-16 -3.055866778207752577e-16 0.000000000000000000e+00 -6.617455925569994007e-16 -1.116873390430711668e-15 1.242940084379421686e-15 1.608114506931135580e-16 -6.670999298966277121e-16 0.000000000000000000e+00 0.000000000000000000e+00 0.000000000000000000e+00 0.000000000000000000e+00 -2.540322612805635729e-16 6.209614342597107149e-16 0.000000000000000000e+00 2.864263316455241805e-16 -6.499991003763933211e-16 1.242940084379421686e-15 1.608114506931135580e-16 -6.670999298966277121e-16 0.000000000000000000e+00 0.000000000000000000e+00 0.000000000000000000e+00 0.000000000000000000e+00 8.680888588801889983e-17 9.575736959008894316e-16 0.000000000000000000e+00 1.309572680747970901e-15 -1.237681726484722715e-15 -2.386570581901757748e+00 -1.210157621473326950e+00 1.661345527530985411e+00 -4.953932697707674748e-02 -2.094992689878057313e+00 -3.988890801689282117e-02 -2.894280766410173733e+00 -1.092204349682586617e+01 -2.439197135406931594e+01 3.057590247587449461e+00 -1.776943430184161343e+00 -4.034094537688063475e+00 0.000000000000000000e+00 0.000000000000000000e+00 0.000000000000000000e+00 5.124663385602924530e-16 -5.551276701811674637e-16 0.000000000000000000e+00 1.047767389458158996e-15 -1.549366386129357164e-15 0.000000000000000000e+00 -3.453288641453561711e-17 -4.463665836286262727e-16 -2.200264766790195294e-16 0.000000000000000000e+00 0.000000000000000000e+00 0.000000000000000000e+00 0.000000000000000000e+00 3.611038338242228778e-16 3.407749638371209673e-16 0.000000000000000000e+00 -9.857001634937632295e-17 -5.099365232529694046e-16 -3.453288641453561711e-17 -4.463665836286262727e-16 -2.200264766790195294e-16 0.000000000000000000e+00 1.291233524610183433e-15 -8.219658297007445156e-16 0.000000000000000000e+00 -6.473091551345460602e-16 1.267679322746531502e-15 0.000000000000000000e+00 4.645043604663839924e-16 4.336306029349613348e-16 -3.453288641453561711e-17 -4.463665836286262727e-16 -2.200264766790195294e-16 0.000000000000000000e+00 0.000000000000000000e+00 0.000000000000000000e+00 0.000000000000000000e+00 -1.984409127371199124e-16 -1.020480380746774682e-15 0.000000000000000000e+00 2.763863328113064141e-16 -9.090964208882901658e-17 -3.453288641453561711e-17 -4.463665836286262727e-16 -2.200264766790195294e-16 0.000000000000000000e+00 0.000000000000000000e+00 0.000000000000000000e+00 0.000000000000000000e+00 2.094883424466951706e-16 6.938382707833235607e-16 0.000000000000000000e+00 1.350049492260460029e-15 5.010079999370414009e-16
